<?xml version="1.0" standalone="no"?>
<!DOCTYPE svg PUBLIC "-//W3C//DTD SVG 20010904//EN"
 "http://www.w3.org/TR/2001/REC-SVG-20010904/DTD/svg10.dtd">
<svg version="1.0" xmlns="http://www.w3.org/2000/svg"
 width="256.000000pt" height="256.000000pt" viewBox="0 0 256.000000 256.000000"
 preserveAspectRatio="xMidYMid meet">
<metadata>
Created by potrace 1.11, written by Peter Selinger 2001-2013
</metadata>
<g transform="translate(0.000000,256.000000) scale(0.100000,-0.100000)"
fill="#000000" stroke="none">
<path d="M744 2381 c-45 -28 -58 -50 -58 -95 1 -59 50 -147 130 -235 l66 -71
397 0 398 0 50 53 c64 67 128 162 141 208 27 100 -29 161 -144 154 -73 -4
-120 -21 -343 -122 -86 -40 -126 -35 -271 30 -172 77 -206 88 -276 92 -45 3
-68 -1 -90 -14z"/>
<path d="M899 1903 c-18 -4 -39 -44 -39 -73 0 -11 10 -28 22 -40 21 -19 33
-20 399 -20 376 0 378 0 399 22 27 29 25 69 -3 96 -23 22 -26 22 -393 21 -203
-1 -376 -3 -385 -6z"/>
<path d="M782 1603 c-214 -210 -374 -493 -447 -789 -76 -310 -25 -496 162
-585 55 -26 86 -35 205 -56 54 -9 1025 -11 1118 -2 116 12 174 26 245 60 71
34 103 60 138 114 120 183 30 630 -197 980 -95 146 -145 206 -255 308 l-73 67
-398 0 -398 0 -100 -97z m558 -84 l0 -57 35 -6 c85 -16 164 -76 205 -155 33
-67 32 -69 -84 -115 -54 -22 -60 -21 -74 18 -15 41 -74 95 -105 97 -80 5 -120
-14 -137 -67 -6 -19 -9 -47 -5 -63 10 -45 33 -60 186 -120 174 -68 232 -117
263 -223 27 -89 2 -220 -56 -289 -30 -36 -102 -78 -163 -94 l-65 -18 0 -71 0
-71 -57 1 -58 0 -3 70 -3 71 -62 17 c-113 32 -192 113 -226 234 l-9 30 67 18
c36 10 71 19 76 20 6 1 17 5 26 9 12 4 18 -1 23 -22 11 -42 52 -101 83 -117
16 -7 55 -14 89 -14 75 0 119 29 130 83 15 81 -12 111 -145 161 -184 71 -242
110 -283 188 -60 118 -26 284 77 368 31 25 108 58 138 58 14 0 17 10 17 58 l0
57 60 1 60 0 0 -57z"/>
</g>
</svg>
